<?xml version="1.0" encoding="UTF-8"?>
<svg id="Layer_2" data-name="Layer 2" xmlns="http://www.w3.org/2000/svg" viewBox="0 0 51.12 55">
  <defs>
    <style>
      .cls-1 {
        fill: #fff;
      }
    </style>
  </defs>
  <g id="Layer_1-2" data-name="Layer 1">
    <g>
      <path class="cls-1" d="m42.96,26.19l.54.65c2.52,3.07,7.5,1.29,7.5-2.68V4.23c0-2.34-1.89-4.23-4.23-4.23H4.25C.66,0-1.3,4.18,1,6.94l42.63,46.13c.8.96,2,1.52,3.25,1.52h0c3.55,0,5.52-4.1,3.3-6.88L20.5,15.88c-2.22-2.77-.24-6.88,3.3-6.88h13.96c2.34,0,4.23,1.89,4.23,4.23v10.28c0,.98.34,1.93.96,2.68Z"/>
      <path class="cls-1" d="m0,30.69v20.08c0,2.34,1.89,4.23,4.23,4.23h.54c2.34,0,4.23-1.89,4.23-4.23v-19.44c0-.99-.35-1.95-.98-2.71l-.54-.64c-2.53-3.04-7.48-1.25-7.48,2.71Z"/>
    </g>
  </g>
</svg>