<svg width="76" height="80" viewBox="0 0 76 80" fill="none" xmlns="http://www.w3.org/2000/svg">
<g filter="url(#filter0_d_106_228)">
<path d="M4 12.6043C4 15.5458 5.02009 18.248 6.74905 20.4029C5.03738 22.5577 4 25.2599 4 28.2014C4 31.143 5.02009 33.8451 6.74905 36C5.03738 38.1549 4 40.857 4 43.7986C4 46.7401 5.02009 49.4423 6.74905 51.5971C5.03738 53.752 4 56.4542 4 59.3957C4 66.3392 9.72286 72 16.7424 72H59.2576C66.2771 72 72 66.3392 72 59.3957C72 56.4542 70.9799 53.752 69.251 51.5971C70.9626 49.4423 72 46.7401 72 43.7986C72 40.857 70.9799 38.1549 69.251 36C70.9626 33.8451 72 31.143 72 28.2014C72 25.2599 70.9799 22.5577 69.251 20.4029C70.9626 18.248 72 15.5458 72 12.6043C72 5.66081 66.2771 0 59.2576 0H16.7597C9.72286 0 4 5.66081 4 12.6043ZM71.1528 59.3957C71.1528 65.8774 65.8276 71.1449 59.2749 71.1449H16.7597C10.207 71.1449 4.88177 65.8774 4.88177 59.3957C4.88177 56.7107 5.79812 54.248 7.3196 52.2641C9.6537 54.8124 13.0252 56.4029 16.7597 56.4029H59.2749C63.0094 56.4029 66.3809 54.7953 68.715 52.2641C70.2365 54.248 71.1528 56.7107 71.1528 59.3957ZM16.7597 47.6295H59.2749C62.8019 47.6295 65.9832 49.1686 68.1617 51.58C65.9832 54.0086 62.8192 55.5306 59.2749 55.5306H16.7597C13.2326 55.5306 10.0514 53.9915 7.87287 51.58C10.0514 49.1686 13.2154 47.6295 16.7597 47.6295ZM71.1528 43.7986C71.1528 46.4836 70.2365 48.9463 68.715 50.9302C66.3809 48.3819 63.0094 46.7915 59.2749 46.7915H16.7597C13.0252 46.7915 9.6537 48.3991 7.3196 50.9302C5.78083 48.9463 4.88177 46.4836 4.88177 43.7986C4.88177 41.1135 5.79812 38.6508 7.3196 36.667C9.6537 39.2152 13.0252 40.8057 16.7597 40.8057H59.2749C63.0094 40.8057 66.3809 39.1981 68.715 36.667C70.2365 38.6508 71.1528 41.1135 71.1528 43.7986ZM16.7597 32.0494H59.2749C62.8019 32.0494 65.9832 33.5886 68.1617 36C65.9832 38.4285 62.8192 39.9506 59.2749 39.9506H16.7597C13.2326 39.9506 10.0514 38.4114 7.87287 36C10.0514 33.5715 13.2154 32.0494 16.7597 32.0494ZM71.1528 28.2014C71.1528 30.8865 70.2365 33.3492 68.715 35.333C66.3809 32.7848 63.0094 31.1943 59.2749 31.1943H16.7597C13.0252 31.1943 9.6537 32.8019 7.3196 35.333C5.78083 33.3492 4.88177 30.8865 4.88177 28.2014C4.88177 25.5164 5.79812 23.0537 7.3196 21.0698C9.6537 23.6181 13.0252 25.2086 16.7597 25.2086H59.2749C63.0094 25.2086 66.3809 23.601 68.715 21.0698C70.2365 23.0537 71.1528 25.5335 71.1528 28.2014ZM16.7597 16.4523H59.2749C62.8019 16.4523 65.9832 17.9914 68.1617 20.4029C65.9659 22.8314 62.8019 24.3705 59.2576 24.3705H16.7597C13.2326 24.3705 10.0514 22.8314 7.87287 20.42C10.0514 17.9915 13.2154 16.4523 16.7597 16.4523ZM59.2576 0.85511C65.8103 0.85511 71.1355 6.12257 71.1355 12.6043C71.1355 15.2893 70.2192 17.752 68.6977 19.7359C66.3636 17.1876 62.9921 15.5972 59.2576 15.5972H16.7597C13.0252 15.5972 9.6537 17.2048 7.3196 19.7359C5.78083 17.752 4.88177 15.2893 4.88177 12.6043C4.88177 6.12257 10.207 0.85511 16.7597 0.85511H59.2576Z" fill="white"/>
</g>
<defs>
<filter id="filter0_d_106_228" x="0" y="0" width="76" height="80" filterUnits="userSpaceOnUse" color-interpolation-filters="sRGB">
<feFlood flood-opacity="0" result="BackgroundImageFix"/>
<feColorMatrix in="SourceAlpha" type="matrix" values="0 0 0 0 0 0 0 0 0 0 0 0 0 0 0 0 0 0 127 0" result="hardAlpha"/>
<feOffset dy="4"/>
<feGaussianBlur stdDeviation="2"/>
<feComposite in2="hardAlpha" operator="out"/>
<feColorMatrix type="matrix" values="0 0 0 0 0 0 0 0 0 0 0 0 0 0 0 0 0 0 0.25 0"/>
<feBlend mode="normal" in2="BackgroundImageFix" result="effect1_dropShadow_106_228"/>
<feBlend mode="normal" in="SourceGraphic" in2="effect1_dropShadow_106_228" result="shape"/>
</filter>
</defs>
</svg>
